<svg xmlns="http://www.w3.org/2000/svg" xmlns:xlink="http://www.w3.org/1999/xlink" width="125" zoomAndPan="magnify" viewBox="0 0 93.75 93.749997" height="125" preserveAspectRatio="xMidYMid meet" version="1.0"><defs><clipPath id="884c8c41b8"><path d="M 0 0 L 93.5 0 L 93.5 93.5 L 0 93.5 Z M 0 0 " clip-rule="nonzero"/></clipPath></defs><g clip-path="url(#884c8c41b8)"><path fill="#ffffff" d="M 0 0 L 93.75 0 L 93.75 101.25 L 0 101.25 Z M 0 0 " fill-opacity="1" fill-rule="nonzero"/><path fill="#ffffff" d="M 0 0 L 93.75 0 L 93.75 93.75 L 0 93.75 Z M 0 0 " fill-opacity="1" fill-rule="nonzero"/><path fill="#ffffff" d="M 0 0 L 93.75 0 L 93.75 93.75 L 0 93.75 Z M 0 0 " fill-opacity="1" fill-rule="nonzero"/></g><path fill="#ec2025" d="M 78.316406 32.007812 C 79.070312 32.007812 79.828125 32.132812 80.535156 32.394531 C 80.542969 32.394531 80.542969 32.394531 80.550781 32.402344 C 82.433594 33.109375 83.828125 34.289062 84.292969 36.359375 C 84.363281 36.667969 84.371094 36.996094 84.371094 37.3125 C 84.378906 39.984375 84.292969 42.65625 84.394531 45.328125 C 84.503906 48.101562 82.652344 49.871094 80.816406 50.539062 C 80.019531 50.824219 79.132812 51.027344 78.285156 51.035156 C 71.875 51.078125 65.46875 51.0625 59.058594 51.0625 C 58.886719 51.0625 58.714844 51.042969 58.511719 51.035156 L 58.511719 46.335938 C 58.746094 46.335938 58.972656 46.335938 59.199219 46.335938 C 64.542969 46.335938 69.890625 46.304688 75.234375 46.351562 C 77.367188 46.367188 78.285156 45.113281 78.324219 43.195312 C 78.355469 41.808594 78.378906 40.394531 78.191406 39.023438 C 77.964844 37.398438 77.132812 36.820312 75.492188 36.820312 C 70.074219 36.820312 64.644531 36.820312 59.226562 36.820312 C 59.011719 36.820312 58.792969 36.820312 58.464844 36.820312 L 58.464844 32.015625 C 65.066406 32.007812 71.6875 32.007812 78.316406 32.007812 Z M 78.316406 32.007812 " fill-opacity="1" fill-rule="nonzero"/><path fill="#ec2126" d="M 30.515625 32.007812 C 30.515625 33.496094 30.515625 34.980469 30.515625 36.503906 C 23.511719 36.503906 16.554688 36.503906 9.566406 36.503906 C 9.566406 34.980469 9.566406 33.496094 9.566406 32.007812 C 16.546875 32.007812 23.535156 32.007812 30.515625 32.007812 Z M 30.515625 32.007812 " fill-opacity="1" fill-rule="nonzero"/><path fill="#313137" d="M 54.894531 32.007812 C 54.894531 33.496094 54.894531 34.988281 54.894531 36.503906 C 47.90625 36.503906 40.949219 36.503906 33.945312 36.503906 C 33.945312 34.980469 33.945312 33.496094 33.945312 32.007812 C 40.933594 32.007812 47.914062 32.007812 54.894531 32.007812 Z M 54.894531 32.007812 " fill-opacity="1" fill-rule="nonzero"/><path fill="#848694" d="M 30.21875 61.914062 C 29.511719 61.914062 28.839844 61.628906 28.359375 61.105469 C 27.097656 59.726562 26.980469 57.46875 28.148438 55.945312 C 28.855469 55.015625 29.804688 54.84375 31.136719 54.84375 C 33.757812 54.84375 36.171875 54.835938 38.964844 54.835938 C 40.046875 54.835938 40.613281 54.953125 40.589844 55.621094 C 40.574219 56.144531 40.234375 56.40625 39.546875 56.40625 C 36.589844 56.40625 33.632812 56.398438 30.675781 56.414062 C 29.625 56.421875 29.042969 57.015625 28.894531 58.171875 C 28.769531 59.15625 29.292969 60.042969 30.140625 60.289062 C 30.304688 60.339844 30.484375 60.363281 30.667969 60.363281 C 33.207031 60.371094 35.757812 60.363281 38.296875 60.371094 C 38.660156 60.371094 38.925781 60.289062 39.027344 59.910156 C 39.136719 59.503906 38.839844 59.179688 38.351562 59.179688 C 36.4375 59.171875 34.523438 59.1875 32.613281 59.171875 C 32.375 59.171875 32.085938 59.109375 31.90625 58.964844 C 31.410156 58.578125 31.558594 57.839844 32.148438 57.632812 C 32.328125 57.570312 32.53125 57.546875 32.730469 57.546875 C 34.605469 57.539062 36.476562 57.523438 38.34375 57.546875 C 40.125 57.570312 40.824219 58.769531 40.542969 60.457031 C 40.480469 60.820312 40.3125 61.105469 40.085938 61.34375 C 39.71875 61.734375 39.199219 61.933594 38.667969 61.933594 Z M 30.21875 61.914062 " fill-opacity="1" fill-rule="nonzero"/><path fill="#838694" d="M 10.492188 61.914062 C 9.496094 61.914062 9.347656 61.628906 9.347656 60.835938 C 9.347656 60.042969 9.332031 57.453125 9.332031 55.761719 C 9.332031 55.066406 9.597656 54.773438 10.28125 54.773438 C 13.394531 54.765625 16.5 54.753906 19.613281 54.773438 C 20.949219 54.78125 22.171875 55.929688 22.460938 57.445312 C 22.808594 59.21875 22.289062 60.617188 20.917969 61.613281 C 20.648438 61.8125 20.320312 61.914062 19.992188 61.914062 Z M 10.941406 56.398438 L 10.941406 60.355469 C 13.707031 60.355469 16.421875 60.355469 19.136719 60.355469 C 20.328125 60.355469 21.019531 59.632812 21.035156 58.402344 C 21.050781 57.152344 20.351562 56.40625 19.136719 56.398438 C 17.128906 56.390625 15.121094 56.398438 13.113281 56.398438 C 12.40625 56.398438 11.691406 56.398438 10.941406 56.398438 Z M 10.941406 56.398438 " fill-opacity="1" fill-rule="nonzero"/><path fill="#828593" d="M 72.613281 61.914062 C 71.671875 61.914062 70.910156 61.148438 70.894531 60.195312 L 70.886719 58.964844 C 70.886719 58.964844 70.894531 56.976562 70.894531 55.976562 C 70.894531 55.175781 71.1875 54.753906 71.726562 54.773438 C 72.246094 54.789062 72.519531 55.191406 72.527344 55.953125 C 72.527344 57.125 72.527344 58.308594 72.527344 59.480469 C 72.527344 60.195312 72.691406 60.355469 73.398438 60.355469 C 76.417969 60.355469 79.429688 60.355469 82.449219 60.355469 C 82.863281 60.355469 83.289062 60.3125 83.53125 60.773438 C 83.625 60.949219 83.648438 61.105469 83.625 61.257812 C 83.5625 61.644531 83.210938 61.914062 82.824219 61.914062 Z M 72.613281 61.914062 " fill-opacity="1" fill-rule="nonzero"/><path fill="#878a98" d="M 42.972656 61.949219 C 42.683594 61.949219 42.171875 61.734375 42.171875 60.726562 C 42.171875 59.117188 42.15625 57.507812 42.15625 55.890625 C 42.15625 55.191406 42.457031 54.804688 42.964844 54.796875 C 43.476562 54.789062 43.773438 55.191406 43.773438 55.890625 C 43.773438 57.523438 43.757812 59.148438 43.757812 60.78125 C 43.765625 61.789062 43.253906 61.949219 42.972656 61.949219 Z M 42.972656 61.949219 " fill-opacity="1" fill-rule="nonzero"/><path fill="#878a98" d="M 24.957031 61.75 C 24.667969 61.75 24.15625 61.535156 24.15625 60.527344 C 24.15625 58.917969 24.140625 57.308594 24.140625 55.691406 C 24.140625 54.992188 24.4375 54.605469 24.949219 54.597656 C 25.457031 54.589844 25.757812 54.992188 25.757812 55.691406 C 25.757812 57.324219 25.742188 58.949219 25.742188 60.582031 C 25.75 61.589844 25.230469 61.75 24.957031 61.75 Z M 24.957031 61.75 " fill-opacity="1" fill-rule="nonzero"/><path fill="#ec2025" d="M 29.050781 39.144531 C 29.050781 39.144531 22 43.988281 18.570312 46.34375 C 18.578125 46.382812 18.59375 46.414062 18.601562 46.453125 C 22.546875 46.453125 26.492188 46.453125 30.484375 46.453125 C 30.484375 47.992188 30.484375 49.476562 30.484375 51.003906 C 23.519531 51.003906 16.554688 51.003906 9.527344 51.003906 C 9.527344 49.554688 9.519531 48.128906 9.542969 46.699219 C 9.542969 46.574219 9.722656 46.40625 9.855469 46.320312 C 13.472656 43.980469 17.097656 41.648438 20.722656 39.324219 C 20.878906 39.222656 21.082031 39.160156 21.269531 39.152344 C 23.734375 39.144531 29.050781 39.144531 29.050781 39.144531 Z M 29.050781 39.144531 " fill-opacity="1" fill-rule="nonzero"/><path fill="#323238" d="M 33.976562 51.011719 C 33.976562 49.523438 33.976562 48.054688 33.976562 46.542969 C 40.925781 46.542969 47.875 46.542969 54.871094 46.542969 C 54.871094 48.015625 54.871094 49.5 54.871094 51.011719 C 47.90625 51.011719 40.957031 51.011719 33.976562 51.011719 Z M 33.976562 51.011719 " fill-opacity="1" fill-rule="nonzero"/><path fill="#35353b" d="M 54.894531 39.390625 C 54.894531 40.777344 54.894531 42.125 54.894531 43.519531 C 47.929688 43.519531 40.980469 43.519531 33.984375 43.519531 C 33.984375 42.15625 33.984375 40.792969 33.984375 39.390625 C 40.925781 39.390625 47.875 39.390625 54.894531 39.390625 Z M 54.894531 39.390625 " fill-opacity="1" fill-rule="nonzero"/><path fill="#ed252a" d="M 64.527344 39.253906 C 64.527344 40.769531 64.527344 42.234375 64.527344 43.742188 C 62.527344 43.742188 60.550781 43.742188 58.527344 43.742188 C 58.527344 42.25 58.527344 40.777344 58.527344 39.253906 C 60.511719 39.253906 62.488281 39.253906 64.527344 39.253906 Z M 64.527344 39.253906 " fill-opacity="1" fill-rule="nonzero"/><path fill="#878a98" d="M 58.101562 55.53125 C 58.09375 55.222656 57.96875 55 57.726562 54.882812 C 57.609375 54.8125 57.46875 54.765625 57.320312 54.765625 L 46.132812 54.765625 C 45.71875 54.765625 45.378906 55.089844 45.347656 55.5 C 45.347656 55.507812 45.347656 55.507812 45.347656 55.515625 C 45.347656 55.53125 45.347656 55.546875 45.347656 55.554688 L 45.347656 55.605469 C 45.347656 56.039062 45.703125 56.398438 46.132812 56.398438 L 47.269531 56.398438 C 48.699219 56.40625 50.707031 56.414062 50.902344 56.429688 C 50.902344 57.910156 50.871094 59.324219 50.925781 60.734375 C 50.925781 60.757812 50.933594 60.78125 50.933594 60.804688 C 50.957031 61.742188 51.4375 61.949219 51.726562 61.949219 C 51.726562 61.949219 51.726562 61.949219 51.734375 61.949219 C 52 61.949219 52.480469 61.796875 52.519531 60.910156 C 52.527344 60.886719 52.535156 60.851562 52.535156 60.828125 C 52.582031 59.554688 52.566406 58.277344 52.542969 57.007812 C 52.535156 56.761719 52.542969 56.414062 52.542969 56.414062 C 52.542969 56.414062 54.480469 56.40625 55.96875 56.40625 L 57.320312 56.40625 C 57.492188 56.40625 57.640625 56.347656 57.773438 56.261719 C 57.960938 56.152344 58.070312 55.96875 58.09375 55.722656 C 58.101562 55.683594 58.101562 55.652344 58.101562 55.613281 L 58.101562 55.566406 C 58.101562 55.546875 58.101562 55.539062 58.101562 55.53125 Z M 58.101562 55.53125 " fill-opacity="1" fill-rule="nonzero"/><path fill="#878a98" d="M 69.25 60.65625 L 69.15625 60.527344 L 69.148438 60.519531 L 65.820312 56.175781 L 65.820312 56.160156 C 65.632812 55.898438 65.4375 55.644531 65.242188 55.382812 C 65.226562 55.367188 65.21875 55.351562 65.203125 55.335938 C 65.140625 55.253906 65.066406 55.183594 65.003906 55.113281 C 65.003906 55.105469 64.996094 55.105469 64.996094 55.097656 C 64.964844 55.058594 64.925781 55.023438 64.886719 54.992188 C 64.085938 54.289062 62.988281 54.257812 62.167969 54.914062 C 62.101562 54.953125 62.039062 55.007812 61.984375 55.074219 C 61.890625 55.160156 61.804688 55.261719 61.71875 55.375 C 60.464844 57.054688 59.226562 58.753906 57.984375 60.449219 C 57.960938 60.480469 57.9375 60.519531 57.914062 60.550781 L 57.90625 60.558594 L 57.8125 60.6875 C 57.703125 60.835938 57.648438 61.003906 57.648438 61.179688 C 57.648438 61.425781 57.757812 61.671875 57.96875 61.828125 C 57.992188 61.84375 58.015625 61.867188 58.046875 61.875 C 58.0625 61.882812 58.078125 61.890625 58.09375 61.898438 C 58.324219 62.011719 58.589844 62.011719 58.808594 61.898438 C 58.871094 61.867188 58.933594 61.828125 58.988281 61.773438 C 59.027344 61.742188 59.058594 61.703125 59.089844 61.652344 L 62.605469 56.921875 C 62.660156 56.847656 62.714844 56.769531 62.769531 56.699219 C 63.242188 56.078125 63.515625 55.976562 63.929688 56.382812 L 64.363281 56.945312 L 67.9375 61.628906 C 67.96875 61.671875 68.007812 61.710938 68.046875 61.742188 C 68.105469 61.789062 68.167969 61.835938 68.238281 61.867188 C 68.457031 61.972656 68.722656 61.980469 68.949219 61.859375 C 68.964844 61.851562 68.980469 61.84375 68.996094 61.828125 C 69.019531 61.8125 69.050781 61.796875 69.078125 61.773438 C 69.289062 61.605469 69.390625 61.359375 69.390625 61.113281 C 69.414062 60.972656 69.359375 60.796875 69.25 60.65625 Z M 69.25 60.65625 " fill-opacity="1" fill-rule="nonzero"/></svg>